<svg width="146" height="116" viewBox="0 0 146 116" fill="none" xmlns="http://www.w3.org/2000/svg">
<path fill-rule="evenodd" clip-rule="evenodd" d="M112.265 54.8347C112.257 54.8233 112.253 54.8091 112.256 54.7952L121.442 0.754129C121.447 0.729246 121.468 0.71106 121.493 0.71106H124.401C124.423 0.71106 124.443 0.725729 124.449 0.747292L145.147 66.8575C145.153 66.8779 145.146 66.9006 145.129 66.9139L129.869 78.9336C129.846 78.9515 129.813 78.947 129.796 78.9234L112.265 54.8347ZM0.851074 90.6599C0.851074 90.6823 0.865361 90.7022 0.886481 90.7093L32.344 101.086C32.3592 101.091 32.3761 101.088 32.3893 101.079L102.704 52.1072C102.716 52.0989 102.724 52.0862 102.726 52.072L110.266 1.03122C110.271 0.999897 110.247 0.971751 110.216 0.971751H47.934C47.9185 0.971751 47.9042 0.978618 47.8944 0.990506L0.862894 58.2272C0.855254 58.2366 0.851074 58.2482 0.851074 58.2604V90.6599ZM45.4525 103.729L79.8193 115.086C79.8348 115.091 79.8519 115.089 79.8652 115.079L120.781 85.4711C120.804 85.4549 120.81 85.4234 120.794 85.4001L105.456 62.374C105.44 62.3498 105.408 62.3436 105.384 62.3601L45.4525 103.729Z" fill="#C5B78C"/>
</svg>
