<svg width="144" height="126" viewBox="0 0 144 126" fill="none" xmlns="http://www.w3.org/2000/svg">
<path fill-rule="evenodd" clip-rule="evenodd" d="M0.0143749 62.9884C-0.00478254 62.9555 -0.00479216 62.9147 0.0143493 62.8815L36.2236 0.51673C36.2424 0.484381 36.277 0.464478 36.3142 0.464478H108.083C108.12 0.464478 108.155 0.484551 108.174 0.517184L143.986 62.8821C144.004 62.9147 144.004 62.9552 143.986 62.9878L108.174 125.283C108.155 125.315 108.12 125.335 108.083 125.335H36.3142C36.277 125.335 36.2424 125.316 36.2236 125.283L0.0143749 62.9884ZM105.361 62.8999C105.361 81.4671 90.4297 96.5189 72.0112 96.5189C53.5927 96.5189 38.6615 81.4671 38.6615 62.8999C38.6615 44.3325 53.5927 29.2809 72.0112 29.2809C90.4297 29.2809 105.361 44.3325 105.361 62.8999Z" fill="#5A8EA2"/>
</svg>
