<svg width="144" height="146" viewBox="0 0 144 146" fill="none" xmlns="http://www.w3.org/2000/svg">
<path fill-rule="evenodd" clip-rule="evenodd" d="M120.325 111.826C134.866 100.118 144 83.2017 144 64.3896C144 29.049 111.765 0.399902 72 0.399902C32.2355 0.399902 0 29.049 0 64.3896C0 82.5226 8.48635 98.894 22.1218 110.538C21.2954 113.411 20.8421 116.536 20.8421 119.804C20.8421 133.94 29.3251 145.4 39.7896 145.4C46.5891 145.4 52.5521 140.561 55.8948 133.294C59.2374 140.561 65.2005 145.4 72 145.4C78.1982 145.4 83.7011 141.38 87.158 135.164C90.6148 141.38 96.1178 145.4 102.316 145.4C112.78 145.4 121.263 133.94 121.263 119.804C121.263 117.018 120.934 114.336 120.325 111.826ZM113.684 65.6587C113.684 83.6007 94.5973 98.1458 71.0528 98.1458C47.5079 98.1458 28.4212 83.6007 28.4212 65.6587C28.4212 47.7166 47.5079 33.1716 71.0528 33.1716C94.5973 33.1716 113.684 47.7166 113.684 65.6587Z" fill="#B567CE"/>
</svg>
