<svg width="144" height="146" viewBox="0 0 144 146" fill="none" xmlns="http://www.w3.org/2000/svg">
<path fill-rule="evenodd" clip-rule="evenodd" d="M64.6095 128.648C67.3452 129.07 70.1471 129.289 73.0001 129.289C103.376 129.289 128 104.493 128 73.907C128 43.3202 103.376 18.5249 73.0001 18.5249C70.9621 18.5249 68.9498 18.6365 66.9695 18.854C82.0375 30.3489 91.9999 50.2612 91.9999 72.8999C91.9999 96.7003 80.9887 117.487 64.6095 128.648ZM71.9999 145.4C111.764 145.4 144 112.941 144 72.8999C144 32.8592 111.764 0.399902 71.9999 0.399902C32.2354 0.399902 0 32.8592 0 72.8999C0 112.941 32.2354 145.4 71.9999 145.4Z" fill="#5A5465"/>
</svg>
