<svg width="144" height="126" viewBox="0 0 144 126" fill="none" xmlns="http://www.w3.org/2000/svg">
<path fill-rule="evenodd" clip-rule="evenodd" d="M50.2628 125.8C71.3573 125.8 89.417 113.982 96.8726 97.2293C96.9638 97.0249 66.9395 105.094 67.8968 102.242C68.3243 100.968 86.7293 94.1907 100.139 86.2855C107.846 81.7417 111.395 72.1233 111.395 72.1233C111.395 72.1233 98.4102 78.478 91.8461 80.0901C78.6184 83.339 66.9743 82.9892 66.9743 82.6506C66.9743 81.9186 86.3089 78.2155 113.182 61.7085C125.822 53.9442 129.255 40.5702 129.255 40.5702C129.255 40.5702 115.358 48.9143 106.957 51.6691C87.0348 58.2019 68.8542 60.1705 68.8542 59.2866C68.8542 57.3939 84.8537 52.959 101.817 44.6736C110.637 40.3658 118.275 34.7377 127.127 28.4788C141.611 18.2384 144 0 144 0C144 0 129.714 9.28761 122.743 12.3719C93.9772 25.0989 68.5769 31.7748 50.2628 33.2201C22.617 35.4019 0 54.8455 0 80.0901C0 105.335 22.5033 125.8 50.2628 125.8Z" fill="#89AAE3"/>
</svg>
