<svg width="144" height="106" viewBox="0 0 144 106" fill="none" xmlns="http://www.w3.org/2000/svg">
<path fill-rule="evenodd" clip-rule="evenodd" d="M31.7154 105.189C31.6763 105.189 31.649 105.151 31.6619 105.113L68.4255 0.238122C68.4337 0.215322 68.4551 0.200073 68.479 0.200073H107.725C107.749 0.200073 107.771 0.215435 107.779 0.238378L143.997 105.114C144.009 105.151 143.982 105.189 143.943 105.189H32.8201H31.7154ZM0.0571056 105.6C0.0176198 105.6 -0.00971692 105.56 0.00413349 105.523L27.3809 31.7338C27.3892 31.7113 27.4103 31.6966 27.4339 31.6966H51.2212C51.2605 31.6966 51.2878 31.736 51.2743 31.7732L24.8018 105.562C24.7937 105.585 24.7724 105.6 24.7486 105.6H0.0571056Z" fill="#D97845"/>
</svg>
