<svg width="134" height="146" viewBox="0 0 134 146" fill="none" xmlns="http://www.w3.org/2000/svg">
<path fill-rule="evenodd" clip-rule="evenodd" d="M123.309 120.821C123.309 120.821 105.151 135.485 69.0187 129.417C41.6053 124.813 26.9842 94.3839 26.9842 78.0278C26.9842 39.2488 55.4878 30.4239 74.7582 30.4239C94.0283 30.4239 106.599 49.3419 106.599 63.9891C106.599 78.6364 96.3112 91.448 80.3005 91.448C64.2901 91.448 59.5482 80.1297 59.5482 69.724C59.5482 59.3185 67.9089 55.6525 75.5339 55.6525C83.1588 55.6525 85.7697 62.2075 85.7697 67.8413C85.7697 73.4753 81.4286 75.4928 77.8078 75.4928C74.187 75.4928 73.8289 73.6534 72.4432 71.7203C71.0572 69.7874 74.2106 62.4706 69.0187 62.4706C63.8269 62.4706 62.8591 70.882 62.8591 70.882C62.8591 70.882 64.7519 87.1189 80.3005 86.8388C95.8494 86.5585 103.226 74.4543 101.082 62.4706C98.9384 50.4866 87.3883 37.7523 67.1175 40.3255C46.8467 42.8987 38.5703 63.5227 42.2184 85.5627C45.8665 107.603 72.0883 120.373 92.7053 115.779C113.323 111.184 133.857 96.1548 133.857 58.0489C133.857 19.9428 101.082 -2.96246 62.001 0.812452C22.9199 4.58735 -1.3399 38.9919 0.212942 80.3297C1.76578 121.667 40.7199 144.181 73.6596 145.342C106.599 146.502 126.793 127.302 126.793 127.302C126.793 127.302 131.334 123.224 129.554 120.04C127.773 116.855 123.309 120.821 123.309 120.821Z" fill="#FA7179"/>
</svg>
